<svg width="571" height="969" viewBox="0 0 571 969" fill="none" xmlns="http://www.w3.org/2000/svg">
<g opacity="0.35">
<path d="M43.1346 553.749C18.0244 536.926 -90.4054 430.22 -82.2255 351.365C-48.8034 332.084 128.065 436.353 208.416 491.175C288.766 545.997 357.87 552.936 357.87 552.936C357.87 552.936 309.277 608.685 228.194 608.274C228.194 608.274 70.9151 569.053 2.39191 372.665" stroke="#009F0B" stroke-width="0.615232"/>
<path d="M287.27 533.42C287.27 533.42 211.948 614.257 128.893 575.814C80.933 553.605 54.4928 552.098 43.2118 553.139C24.7283 537.78 -32.362 475.39 -48.9259 352.507" stroke="#009F0B" stroke-width="0.615232"/>
<path d="M224.472 501.271C224.472 501.271 169.075 566.683 99.5052 563.402" stroke="#009F0B" stroke-width="0.615232"/>
<path d="M331.895 547.771C331.895 547.771 290.948 592.107 225.678 608.572L227.748 670.152C227.748 670.152 152.982 673.641 127.284 680.899C101.663 687.547 -6.92386 684.253 2.46306 644.571C15.8612 617.167 43.1342 553.748 43.1342 553.748" stroke="#009F0B" stroke-width="0.615232"/>
<path d="M166.107 463.493C166.107 463.493 82.8612 543.322 -4.39344 508.679" stroke="#009F0B" stroke-width="0.615232"/>
<path d="M9.47297 375.425C9.47297 375.425 -35.6404 408.701 -82.2255 351.365" stroke="#009F0B" stroke-width="0.615232"/>
<path d="M275.457 601.902C275.457 601.902 341.257 654.252 379.565 664.703C416.045 674.921 471.009 666.434 489.163 557.88C507.317 449.327 539.944 309.79 531.835 222.667C523.725 135.544 456.586 -32.7958 227.91 -41.4667C32.5325 -48.9956 -144.873 84.4987 -82.8345 351.286" stroke="#009F0B" stroke-width="0.615232"/>
<path d="M468.284 624.591C460.272 629.145 452.338 633.09 431.893 608.81C411.449 584.53 379.989 544.603 355.809 554.531" stroke="#009F0B" stroke-width="0.615232"/>
<path d="M225.678 608.573C190.173 605.292 75.1596 579.503 39.3003 564.409" stroke="#009F0B" stroke-width="0.615232"/>
<path d="M226.254 623.51C190.749 620.229 63.7003 591.669 33.4039 576.664" stroke="#009F0B" stroke-width="0.615232"/>
<path d="M226.608 635.323C174.104 634.214 61.2954 610.564 27.3534 590.14" stroke="#009F0B" stroke-width="0.615232"/>
<path d="M227.261 649.651C174.757 648.542 55.6102 630.898 21.225 604.224" stroke="#009F0B" stroke-width="0.615232"/>
<path d="M227.228 664.512C174.724 663.403 66.2367 649.593 15.0965 618.308" stroke="#009F0B" stroke-width="0.615232"/>
<path d="M163.343 674.96C98.1954 671.003 29.3581 647.375 8.28153 632.925" stroke="#009F0B" stroke-width="0.615232"/>
<path d="M406.903 167.745C358.688 157.272 261.835 188.298 234.484 286.39C207.055 385.092 241.926 466.331 280.523 484.251C319.119 502.17 364.609 504.864 385.331 507.502C416.946 512.146 430.043 550.355 455.254 556.661C487.013 565.039 502.374 478.427 513.203 373.896C523.345 269.897 496.629 187.838 406.903 167.745Z" stroke="#009F0B" stroke-width="0.615232"/>
<path d="M406.903 167.745C406.903 167.745 383.304 -11.7749 242.77 -41.4321" stroke="#009F0B" stroke-width="0.615232"/>
<path d="M235.636 282.202C235.636 282.202 -5.60589 236.008 -90.2451 190.55" stroke="#009F0B" stroke-width="0.615232"/>
<path d="M491.246 546.379C489.096 553.537 476.596 588.488 452.161 576.087C427.65 564.296 407.072 531.328 376.986 524.401C347.509 517.552 288.822 521.23 258.936 493.271C227.908 464.547 181.223 417.727 200.641 289.515C220.136 160.693 299.436 106.994 396.975 109.501C482.779 111.752 525.762 211.985 533.262 264.966" stroke="#009F0B" stroke-width="0.615232"/>
<path d="M481.848 591.015C477.559 600.378 462.111 624.425 442.731 601.519C423.959 578.691 400.877 541.069 370.857 538.486C340.838 535.903 247.177 536.987 208.083 469.456C168.38 401.847 157.932 337.962 168.272 281.059C178.612 224.156 236.971 62.5008 400.312 83.2934C480.763 93.5345 524.587 192.016 532.521 222.136" stroke="#009F0B" stroke-width="0.615232"/>
<path d="M529.65 312.815C531.689 287.062 508.62 176.358 441.246 146.104C373.871 115.85 309.697 152.894 293.13 166.269C271.676 183.976 230.863 202.936 224.565 359.45" stroke="#009F0B" stroke-width="0.615232"/>
<path d="M177.599 470.53C152.079 432.597 123.778 377.588 137.122 272.758C150.467 167.928 248.375 41.0362 392.821 59.4236C459.864 67.9579 503.767 131.766 517.729 158.317" stroke="#009F0B" stroke-width="0.615232"/>
<path d="M487.999 95.0749C469.228 72.2467 426.554 37.7048 372.31 30.7998C311.972 23.1189 142.071 39.2718 104.432 271.694C90.6009 356.023 121.085 423.078 131.711 441.773" stroke="#009F0B" stroke-width="0.615232"/>
<path d="M450.689 47.5897C431.818 35.2778 396.723 19.0426 365.03 15.0082C333.337 10.9739 113.836 -11.3936 70.756 268.645C60.0054 338.502 80.915 393.19 91.2978 418.666C91.2978 418.666 -1.88844 513.333 -71.6106 409.077" stroke="#009F0B" stroke-width="0.615232"/>
<path d="M51.338 396.857C41.5759 366.505 32.0578 329.371 42.3765 248.31C52.6952 167.249 126.224 3.18988 302.431 -4.10873C354.104 -6.20194 399.948 8.30478 409.234 13.203" stroke="#009F0B" stroke-width="0.615232"/>
<path d="M17.6179 379.558C3.71189 328.24 8.42221 300.968 13.7979 249.007C19.1736 197.047 56.7442 -5.65469 275.26 -19.3353C305.823 -21.0189 348.109 -17.494 362.349 -12.5846" stroke="#009F0B" stroke-width="0.615232"/>
<path d="M-7.50381 367.69C-16.2909 344.274 -18.5395 293.82 -14.0396 258.471C-9.53976 223.121 29.4836 -15.3181 248.686 -29.5306C279.249 -31.2143 310.565 -29.0859 325.647 -25.9273" stroke="#009F0B" stroke-width="0.615232"/>
<path d="M-31.1068 358.492C-36.9353 341.027 -40.4141 295.371 -33.9746 244.785C-27.5351 194.198 24.3978 -24.0172 239.113 -41.8977" stroke="#009F0B" stroke-width="0.615232"/>
<path d="M-51.364 352.197C-57.458 317.356 -85.5103 51.1791 169.376 -39.007" stroke="#009F0B" stroke-width="0.615232"/>
<path d="M-68.2735 348.806C-68.2735 348.806 -108.737 77.9516 89.0918 -21.3559" stroke="#009F0B" stroke-width="0.615232"/>
<path d="M-77.6491 349.47C-77.6491 349.47 -114.324 155.898 1.64621 28.2091" stroke="#009F0B" stroke-width="0.615232"/>
<path d="M458.344 639.429C450.033 641.468 445.522 647.706 427.815 626.252C409.575 604.111 380.565 559.541 355.809 554.532" stroke="#009F0B" stroke-width="0.615232"/>
<path d="M444.06 654.333C432.479 652.859 421.054 650.166 412.101 632.923C402.616 614.993 361.194 565.746 350.612 561.302" stroke="#009F0B" stroke-width="0.615232"/>
<path d="M429.332 662.987C419.126 660.449 410.893 661.879 396.388 639.594C381.883 617.308 352.484 575.785 339.541 570.422" stroke="#009F0B" stroke-width="0.615232"/>
<path d="M408.288 667.741C392.22 662.599 383.023 652.138 369.061 625.586C356.462 602.924 335.175 580.395 326.72 578.699" stroke="#009F0B" stroke-width="0.615232"/>
<path d="M383.144 665.779C362.056 656.281 337.346 597.394 316.646 584.849" stroke="#009F0B" stroke-width="0.615232"/>
<path d="M351.396 652.447C337.855 642.052 319.893 598.269 297.42 594.789" stroke="#009F0B" stroke-width="0.615232"/>
<path d="M320.346 633.63C320.346 633.63 305.708 602.657 281.329 599.554" stroke="#009F0B" stroke-width="0.615232"/>
<path d="M478.976 209.746L431.739 541.9" stroke="#009F0B" stroke-width="0.615232"/>
<path d="M379.853 166.16L327.431 500.132" stroke="#009F0B" stroke-width="0.615232"/>
<path d="M324.723 180.819L277.553 483.254" stroke="#009F0B" stroke-width="0.615232"/>
<path d="M260.593 232.114L232.974 415.024" stroke="#009F0B" stroke-width="0.615232"/>
<path d="M498.329 481.009C498.329 481.009 490.106 511.549 467.544 513.632C444.982 515.715 395.237 507.525 380.156 504.366L428.911 174.882" stroke="#009F0B" stroke-width="0.615232"/>
<path d="M505.434 439.797L237.816 430.505" stroke="#009F0B" stroke-width="0.615232"/>
<path d="M513.137 369.552L224.565 359.45" stroke="#009F0B" stroke-width="0.615232"/>
<path d="M513.67 302.11L235.637 282.202" stroke="#009F0B" stroke-width="0.615232"/>
<path d="M492.573 229.438L273.659 217.055" stroke="#009F0B" stroke-width="0.615232"/>
<path d="M418.59 830.085C418.59 830.085 335.027 712.918 227.749 670.152" stroke="#009F0B" stroke-width="0.615232"/>
<path d="M12.5699 623.561C12.5699 623.561 -154.993 616.476 -248.934 775.459" stroke="#009F0B" stroke-width="0.615232"/>
<path d="M126.75 927.587C126.75 927.587 80.4069 786.416 -63.0637 740.901C-123.756 721.407 -190.257 742.671 -248.402 776.147" stroke="#009F0B" stroke-width="0.615232"/>
<path d="M282.642 861.708C282.642 861.708 180.108 708.681 113.942 683.536C46.3671 674.315 16.4473 661.216 3.22756 643.43" stroke="#009F0B" stroke-width="0.615232"/>
<path d="M116.679 686.362C116.679 686.362 50.866 707.094 15.5698 780.02" stroke="#009F0B" stroke-width="0.615232"/>
<path d="M309.795 716.519C309.795 716.519 214.439 691.993 153.879 715.252C105.751 733.28 63.4304 778.68 50.4642 817.288" stroke="#009F0B" stroke-width="0.615232"/>
<path d="M355.649 760.137C355.649 760.137 263.452 720.53 192.441 748.032C110.371 779.701 85.2483 835.961 79.9622 848.295" stroke="#009F0B" stroke-width="0.615232"/>
<path d="M411.144 820.466C398.433 813.274 300.275 747.514 216.498 792.591C142.639 832.738 122.913 895.259 118.159 908.28" stroke="#009F0B" stroke-width="0.615232"/>
<path d="M55.4211 681.042C55.4211 681.042 -3.94302 714.362 -19.7463 760.66" stroke="#009F0B" stroke-width="0.615232"/>
<path d="M18.4089 670.136C18.4089 670.136 -27.3579 689.085 -53.3119 742.142" stroke="#009F0B" stroke-width="0.615232"/>
<path d="M2.21939 651.353C2.21939 651.353 -71.085 682.28 -89.7253 736.268" stroke="#009F0B" stroke-width="0.615232"/>
<path d="M7.43911 634.675C7.43911 634.675 -39.546 619.404 -97.3697 645.488" stroke="#009F0B" stroke-width="0.615232"/>
</g>
</svg>
